<svg width="1200" height="800" viewBox="0 0 1200 800" fill="none" xmlns="http://www.w3.org/2000/svg">
  <rect width="1200" height="800" fill="#F3EAD8"/>
  <rect y="430" width="1200" height="370" fill="#1F6F8B"/>
  <path d="M0 436C150 387 284 399 426 436C575 475 723 467 880 420C1009 382 1101 388 1200 422V800H0V436Z" fill="#082F42"/>
  <path d="M0 370C98 331 196 319 294 344C413 374 540 366 653 322C787 270 937 261 1200 326V0H0V370Z" fill="#2D6A4F"/>
  <rect x="698" y="361" width="280" height="34" rx="17" fill="#E4D5B8"/>
  <rect x="716" y="391" width="15" height="126" rx="7.5" fill="#C7A86A"/>
  <rect x="882" y="391" width="15" height="126" rx="7.5" fill="#C7A86A"/>
  <path d="M740 361L780 276H892L951 361H740Z" fill="#8B5E34"/>
  <path d="M266 579C360 546 456 547 552 584" stroke="#FBF7EF" stroke-width="11" stroke-linecap="round" opacity=".5"/>
  <path d="M162 515C202 501 242 501 282 516" stroke="#FBF7EF" stroke-width="8" stroke-linecap="round" opacity=".38"/>
</svg>
